<svg id="Dribble_mask.svg" xmlns="http://www.w3.org/2000/svg" width="20" height="20" viewBox="0 0 20 20">
  <defs>
    <style>
      .cls-1 {
        fill: #fff;
        fill-rule: evenodd;
      }
    </style>
  </defs>
  <path class="cls-1" d="M669,31h20V51H669V31Zm10,17a7,7,0,1,1,7-7A7,7,0,0,1,679,48Zm4.842-4.972a6.412,6.412,0,0,0-1.779-.278,6.573,6.573,0,0,0-.777.059,13.622,13.622,0,0,1,.323,2.722A5.25,5.25,0,0,0,683.842,43.028Zm-3.985,3.136c0-.117.018-0.233,0.018-0.351a11.725,11.725,0,0,0-.293-2.559,6.611,6.611,0,0,0-2.963,2.4A4.837,4.837,0,0,0,679.857,46.164Zm-4.627-1.522a8.331,8.331,0,0,1,3.851-3.071c-0.137-.353-0.292-0.7-0.461-1.033a8.049,8.049,0,0,1-4.84.169c-0.006.1-.03,0.193-0.03,0.293A5.223,5.223,0,0,0,675.23,44.642Zm0.516-7.732a5.232,5.232,0,0,0-1.588,2.063,6.413,6.413,0,0,0,1.78.278A6.537,6.537,0,0,0,677.687,39,12.1,12.1,0,0,0,675.746,36.91Zm1.643-.882a13.836,13.836,0,0,1,1.938,2.261,6.636,6.636,0,0,0,2.042-1.95A4.952,4.952,0,0,0,677.389,36.028Zm5.4,1.347a8.376,8.376,0,0,1-2.567,2.43,13.2,13.2,0,0,1,.557,1.3A8.349,8.349,0,0,1,682.062,41a8.178,8.178,0,0,1,2.158.293c0.006-.1.03-0.193,0.03-0.293A5.223,5.223,0,0,0,682.785,37.376Z" transform="translate(-669 -31)"/>
</svg>
