<svg id="Mailru_mask.svg" xmlns="http://www.w3.org/2000/svg" width="20" height="20" viewBox="0 0 20 20">
  <defs>
    <style>
      .cls-1 {
        fill: #fff;
        fill-rule: evenodd;
      }
    </style>
  </defs>
  <path id="mailru_copy_14" data-name="mailru copy 14" class="cls-1" d="M541,31h20V51H541V31Zm12.753,10.435a2.387,2.387,0,0,0-2.429-2.408h-0.049a2.375,2.375,0,0,0-2.311,2.613,2.319,2.319,0,0,0,2.3,2.537,2.469,2.469,0,0,0,2.487-2.438Zm-2.471-3.752a3.65,3.65,0,0,1,2.614,1.178v0a0.555,0.555,0,0,1,.53-0.606H554.5a0.607,0.607,0,0,1,.581.628l0,5.367a0.334,0.334,0,0,0,.558.307c0.824-.886,1.809-4.552-0.513-6.677a5.116,5.116,0,0,0-8.283,5.725,4.963,4.963,0,0,0,6.187,2.687c0.958-.4,1.4.95,0.4,1.392a6.489,6.489,0,0,1-7.642-2.939,6.581,6.581,0,0,1,10.594-7.657c2.227,2.433,2.1,6.987-.075,8.758a1.509,1.509,0,0,1-2.436-1.151l-0.01-.383a3.576,3.576,0,0,1-2.591,1.126,3.885,3.885,0,0,1,0-7.759h0" transform="translate(-541 -31)"/>
</svg>
