<svg id="Odnoklassniki_mask.svg" xmlns="http://www.w3.org/2000/svg" width="20" height="20" viewBox="0 0 20 20">
  <defs>
    <style>
      .cls-1 {
        fill: #fff;
        fill-rule: evenodd;
      }
    </style>
  </defs>
  <path id="Одноклассники_copy_26" data-name="Одноклассники copy 26" class="cls-1" d="M316,31h20V51H316V31Zm10.5,10.991a3.5,3.5,0,1,1,3.518-3.5A3.508,3.508,0,0,1,326.5,41.991Zm0.009-5.035a1.52,1.52,0,1,0,1.535,1.518A1.528,1.528,0,0,0,326.506,36.956Zm-3.015,5.123a6.06,6.06,0,0,1,1.119.542,4.378,4.378,0,0,0,1.888.395,5.822,5.822,0,0,0,1.964-.357,6,6,0,0,1,1.116-.564c0.221,0.008.583,0.373,0.521,1.318-0.035.538-1.017,0.761-1.363,0.967a2.291,2.291,0,0,1-.726.247s0.847,0.906,1.063,1.129a2.676,2.676,0,0,1,.949,1.278,1.344,1.344,0,0,1-1,1,4.466,4.466,0,0,1-1.4-1.12c-0.583-.556-1.115-1.069-1.115-1.069s-0.547.486-1.116,1.049a4.6,4.6,0,0,1-1.368,1.14,1.439,1.439,0,0,1-1.061-1.16,6.316,6.316,0,0,1,1.24-1.486,8.257,8.257,0,0,1,.8-0.757,1.911,1.911,0,0,1-.638-0.208c-0.481-.267-1.511-0.547-1.483-1.043C322.9,42.87,323.035,42.08,323.491,42.079Z" transform="translate(-316 -31)"/>
</svg>
