<svg id="Skype_mask.svg" xmlns="http://www.w3.org/2000/svg" width="20" height="20" viewBox="0 0 20 20">
  <defs>
    <style>
      .cls-1 {
        fill: #fff;
        fill-rule: evenodd;
      }
    </style>
  </defs>
  <path id="Ellipse_36_copy_2" data-name="Ellipse 36 copy 2" class="cls-1" d="M747,31h20V51H747V31Zm17,12.8a4.175,4.175,0,0,1-6.824,3.25c-0.06,0-.116.018-0.176,0.018A6.07,6.07,0,0,1,750.93,41c0-.06.016-0.116,0.017-0.176a4.175,4.175,0,0,1,5.877-5.876c0.06,0,.116-0.018.176-0.018A6.07,6.07,0,0,1,763.07,41c0,0.06-.016.116-0.017,0.176A4.16,4.16,0,0,1,764,43.8Zm-4.543-2.332a1.615,1.615,0,0,0-.5-0.589,3.045,3.045,0,0,0-.772-0.392,9.84,9.84,0,0,0-1.01-.294c-0.3-.076-0.509-0.134-0.637-0.174a1.947,1.947,0,0,1-.377-0.164,0.879,0.879,0,0,1-.29-0.246,0.546,0.546,0,0,1-.1-0.333,0.65,0.65,0,0,1,.307-0.537,1.359,1.359,0,0,1,.82-0.227,1.222,1.222,0,0,1,.795.207,1.726,1.726,0,0,1,.425.586,1.592,1.592,0,0,0,.263.39,0.491,0.491,0,0,0,.362.122,0.553,0.553,0,0,0,.436-0.2,0.678,0.678,0,0,0,.175-0.455,1.273,1.273,0,0,0-.138-0.557,1.723,1.723,0,0,0-.432-0.542,2.24,2.24,0,0,0-.741-0.412,3.218,3.218,0,0,0-1.054-.154,3.46,3.46,0,0,0-1.328.233,1.886,1.886,0,0,0-.868.671,1.726,1.726,0,0,0-.3,1,1.662,1.662,0,0,0,.284.989,1.959,1.959,0,0,0,.767.626,6.205,6.205,0,0,0,1.192.4,8.233,8.233,0,0,1,.844.233,1.241,1.241,0,0,1,.508.313,0.722,0.722,0,0,1,.192.525,0.824,0.824,0,0,1-.36.684,1.523,1.523,0,0,1-.95.278,1.458,1.458,0,0,1-.686-0.138,1.078,1.078,0,0,1-.4-0.348,2.684,2.684,0,0,1-.269-0.531,1.1,1.1,0,0,0-.255-0.417,0.521,0.521,0,0,0-.371-0.144,0.592,0.592,0,0,0-.445.183,0.626,0.626,0,0,0-.175.442,1.682,1.682,0,0,0,.286.892,2.168,2.168,0,0,0,.736.729A3.118,3.118,0,0,0,757,44.5a3.323,3.323,0,0,0,1.414-.278,2.073,2.073,0,0,0,.91-0.769,2.038,2.038,0,0,0,.311-1.111A1.921,1.921,0,0,0,759.457,41.471Z" transform="translate(-747 -31)"/>
</svg>
