<svg id="Twitter_mask.svg" xmlns="http://www.w3.org/2000/svg" width="20" height="20" viewBox="0 0 20 20">
  <defs>
    <style>
      .cls-1 {
        fill: #fff;
        fill-rule: evenodd;
      }
    </style>
  </defs>
  <path id="Твиттер_copy_21" data-name="Твиттер copy 21" class="cls-1" d="M496,31h20V51H496V31Zm10.294,8.784s0.2-2.739,2.175-2.763c1.611-.02,1.916.686,1.916,0.686A3.658,3.658,0,0,0,511.7,37a2.046,2.046,0,0,1-.539,1.233A1.365,1.365,0,0,0,512,37.942a1.6,1.6,0,0,1-.878,1.017,9.089,9.089,0,0,1-1.354,4.842c-1.29,2.11-4.055,2.171-5.49,2.188a7.846,7.846,0,0,1-3.272-.922,6.932,6.932,0,0,0,3.152-.663A15.328,15.328,0,0,1,502,42.68a2.216,2.216,0,0,0,.781-0.076,11.239,11.239,0,0,1-1.776-2.371,2.931,2.931,0,0,0,.819.041s-1.268-1.993-.669-3.285A8.158,8.158,0,0,0,506.294,39.784Z" transform="translate(-496 -31)"/>
</svg>
