<svg id="Basket_big_black.svg" xmlns="http://www.w3.org/2000/svg" width="22" height="21" viewBox="0 0 22 21">
  <defs>
    <style>
      .cls-1 {
        fill: #222;
        fill-rule: evenodd;
      }
    </style>
  </defs>
  <path id="Ellipse_2_copy_6" data-name="Ellipse 2 copy 6" class="cls-1" d="M1507,122l-0.99,1.009L1492,123l-1-1-1-9h-3a0.88,0.88,0,0,1-1-1,1.059,1.059,0,0,1,1.22-1h2.45c0.31,0,.63.006,0.63,0.006a1.272,1.272,0,0,1,1.4.917l0.41,3.077H1507l1,1v1ZM1492.24,117l0.43,3.995h12.69l0.82-4Zm2.27,7.989a3.5,3.5,0,1,1-3.5,3.5A3.495,3.495,0,0,1,1494.51,124.993Zm8.99,0a3.5,3.5,0,1,1-3.49,3.5A3.5,3.5,0,0,1,1503.5,124.993Zm-9,2.006a1.5,1.5,0,1,1-1.5,1.5A1.5,1.5,0,0,1,1494.5,127Zm9,0a1.5,1.5,0,1,1-1.5,1.5A1.5,1.5,0,0,1,1503.5,127Z" transform="translate(-1486 -111)"/>
</svg>
