<svg id="Close_mask.svg" xmlns="http://www.w3.org/2000/svg" width="18" height="18" viewBox="0 0 16 16">
  <defs>
    <style>
      .cls-1 {
        fill: #fff;
        fill-rule: evenodd;
      }
    </style>
  </defs>
  <path id="Rounded_Rectangle_114_copy_7" data-name="Rounded Rectangle 114 copy 7" class="cls-1" d="M340.71,144.3l-6.3-6.3,6.293-6.3a1,1,0,0,0,0-1.414,0.981,0.981,0,0,0-.662-0.285H341v15A1,1,0,0,0,340.71,144.3ZM325.3,130.285a1,1,0,0,0,0,1.414l6.293,6.3-6.3,6.3a1,1,0,0,0-.289.7V130h0.958A0.979,0.979,0,0,0,325.3,130.285Zm-0.007,15.43a0.988,0.988,0,0,0,.665.285H325v-0.98A1,1,0,0,0,325.289,145.715ZM326.042,130h13.916a0.981,0.981,0,0,0-.663.285l-6.3,6.3-6.3-6.3A0.981,0.981,0,0,0,326.042,130Zm13.924,16H326.034a0.984,0.984,0,0,0,.664-0.285l6.3-6.306,6.3,6.306A0.984,0.984,0,0,0,339.966,146Zm0.744-.285a1,1,0,0,0,.29-0.7V146h-0.954A0.984,0.984,0,0,0,340.71,145.715Z" transform="translate(-325 -130)"/>
</svg>
