<svg id="Phone_mask.svg" xmlns="http://www.w3.org/2000/svg" width="9" height="12" viewBox="0 0 9 12">
  <defs>
    <style>
      .cls-1 {
        fill: #fff;
        fill-rule: evenodd;
      }
    </style>
  </defs>
  <path id="Shape_51_copy_4" data-name="Shape 51 copy 4" class="cls-1" d="M310.76,47a4.522,4.522,0,0,0,1.485-.528,0.956,0.956,0,0,0,.57-0.7l0.119-.417a0.6,0.6,0,0,0-.314-0.827,22.378,22.378,0,0,1-2.09-1.179,0.439,0.439,0,0,0-.617.107l-0.391.307a0.567,0.567,0,0,1-.824.05,7.768,7.768,0,0,1-2.5-4.26,0.553,0.553,0,0,1,.455-0.677l0.467-.18c0.29-.112.414-0.156,0.4-0.472-0.032-.762-0.018-1.427-0.011-2.354a0.623,0.623,0,0,0-.552-0.7l-0.427-.107a0.98,0.98,0,0,0-.9.135,4.36,4.36,0,0,0-1.223,1.02A2.992,2.992,0,0,0,304,37.736V35h9V47h-2.24Zm-6.235-6.6a13.082,13.082,0,0,0,1.069,2.331,13.251,13.251,0,0,0,1.517,2.078C308,45.814,309.26,47,310.69,47H304V37.766A7.932,7.932,0,0,0,304.525,40.4Z" transform="translate(-304 -35)"/>
</svg>
