<svg id="Search_black.svg" xmlns="http://www.w3.org/2000/svg" width="16.03" height="16.031" viewBox="0 0 16.03 16.031">
  <defs>
    <style>
      .cls-1 {
        fill: #222;
        fill-rule: evenodd;
      }
    </style>
  </defs>
  <path id="Rounded_Rectangle_78" data-name="Rounded Rectangle 78" class="cls-1" d="M1654.73,71.32a0.983,0.983,0,0,1,0,1.414,0.994,0.994,0,0,1-1.41,0l-3.05-3.055a0.633,0.633,0,0,1-.08-0.107A6.921,6.921,0,0,1,1646,71a7,7,0,1,1,7-7,6.9,6.9,0,0,1-1.43,4.194,0.61,0.61,0,0,1,.11.071ZM1646,59a5,5,0,1,0,5,5A5,5,0,0,0,1646,59Z" transform="translate(-1639 -57)"/>
</svg>
