<svg id="User_white.svg" xmlns="http://www.w3.org/2000/svg" width="14" height="17" viewBox="0 0 14 17">
  <defs>
    <style>
      .cls-1 {
        fill: #fff;
        fill-rule: evenodd;
      }
    </style>
  </defs>
  <path id="Ellipse_57_copy_6" data-name="Ellipse 57 copy 6" class="cls-1" d="M1250,48.8a1.01,1.01,0,0,1-.89,1.2,0.979,0.979,0,0,1-1.01-1.014V48.8a6.02,6.02,0,0,0-10.17,0,0.687,0.687,0,0,1,.06.188A1.08,1.08,0,0,1,1236.98,50a1.055,1.055,0,0,1-.95-1.2l-0.04.188c0.31-3,3.67-4.994,7.03-5,3.46,0,6.78,2.144,6.99,5Zm-7-5.786a5.006,5.006,0,1,1,5.01-5.006A5.012,5.012,0,0,1,1243,43.011Zm0-8.005a3,3,0,1,0,3,3A3,3,0,0,0,1243,35.006Z" transform="translate(-1236 -33)"/>
</svg>
