<svg id="Instagram_mask.svg" xmlns="http://www.w3.org/2000/svg" width="20" height="20" viewBox="0 0 20 20">
  <defs>
    <style>
      .cls-1 {
        fill: #fff;
        fill-rule: evenodd;
      }
    </style>
  </defs>
  <path id="Rounded_Rectangle_1" data-name="Rounded Rectangle 1" class="cls-1" d="M710,31h20V51H710V31Zm13,17h-6a4,4,0,0,1-4-4V38a4,4,0,0,1,4-4h6a4,4,0,0,1,4,4v6A4,4,0,0,1,723,48Zm2-10a2,2,0,0,0-2-2h-6a2,2,0,0,0-2,2v6a2,2,0,0,0,2,2h6a2,2,0,0,0,2-2V38Zm-5,6a3,3,0,1,1,3-3A3,3,0,0,1,720,44Zm1-4h-2v2h2V40Z" transform="translate(-710 -31)"/>
</svg>
