<svg id="Livejournal_mask.svg" xmlns="http://www.w3.org/2000/svg" width="20" height="20" viewBox="0 0 20 20">
  <defs>
    <style>
      .cls-1 {
        fill: #fff;
        fill-rule: evenodd;
      }
    </style>
  </defs>
  <path id="Ellipse_76_copy_5" data-name="Ellipse 76 copy 5" class="cls-1" d="M328,1220h20v20H328v-20Zm17.057,16.35-0.671.67-5.011-1-8.244-8.24c-0.456-.46.22-1.88,1.51-3.17s2.707-1.96,3.163-1.51l7.222,7.22h0l0.163,0.17h0l0.859,0.86Zm-2.984-3.67a5.044,5.044,0,0,0-.708.65,5.908,5.908,0,0,0-.649.7l1.631,0.27Zm-6.744-7.4c-0.371-.37-0.792.11-1.349,0.66s-1.036.98-.665,1.35l1.092,1.09a8.936,8.936,0,0,1,.919-1.08,8.543,8.543,0,0,1,1.1-.93Zm1.336,3.35c-0.555.55-1.036,0.98-.665,1.35l3.106,3.1a8.859,8.859,0,0,1,.92-1.08,7.8,7.8,0,0,1,1.095-.93l-3.107-3.11C337.643,1227.59,337.222,1228.07,336.665,1228.63Z" transform="translate(-328 -1220)"/>
</svg>
