<svg id="Addres_black.svg" xmlns="http://www.w3.org/2000/svg" width="13" height="16" viewBox="0 0 13 16">
  <defs>
    <style>
      .cls-1 {
        fill-rule: evenodd;
      }
    </style>
  </defs>
  <path id="Ellipse_74_copy" data-name="Ellipse 74 copy" class="cls-1" d="M763.9,42.916h0.03L759,49h-1l-4.933-6.084h0.03a6.262,6.262,0,0,1-1.1-3.541,6.5,6.5,0,0,1,13,0A6.262,6.262,0,0,1,763.9,42.916ZM758.5,35a4.5,4.5,0,0,0-3.741,7h-0.012l3.542,4.447h0.422L762.289,42H762.24A4.5,4.5,0,0,0,758.5,35Zm0,6a1.5,1.5,0,1,1,1.5-1.5A1.5,1.5,0,0,1,758.5,41Z" transform="translate(-752 -33)"/>
</svg>
