<svg id="Arrow_left_white.svg" xmlns="http://www.w3.org/2000/svg" width="17" height="11.97" viewBox="0 0 17 11.97">
  <defs>
    <style>
      .cls-1 {
        fill: #fff;
        fill-rule: evenodd;
      }
    </style>
  </defs>
  <path id="Rounded_Rectangle_3_copy" data-name="Rounded Rectangle 3 copy" class="cls-1" d="M1666.95,4840.26a0.611,0.611,0,0,1-.03.13,0.053,0.053,0,0,1-.02.03,1.122,1.122,0,0,1-.2.3l-4.99,4.98a1,1,0,0,1-1.41,0,1.008,1.008,0,0,1,0-1.42l3.28-3.28H1651a1,1,0,0,1,0-2h12.58l-3.28-3.28a1.008,1.008,0,0,1,0-1.42,1,1,0,0,1,1.41,0l4.99,4.98a0.985,0.985,0,0,1,.2.3,0.053,0.053,0,0,1,.02.03,0.611,0.611,0,0,1,.03.13A0.7,0.7,0,0,1,1666.95,4840.26Z" transform="translate(-1650 -4834.03)"/>
</svg>
