<svg id="Comment_noimage.svg" xmlns="http://www.w3.org/2000/svg" width="86" height="98" viewBox="0 0 86 98">
  <defs>
    <style>
      .cls-1 {
        fill: #2f0c0c;
        fill-rule: evenodd;
      }
    </style>
  </defs>
  <path class="cls-1" d="M1001,4835v-4h-0.1c0.02-.79.03-1.5,0.03-2.02a8.683,8.683,0,0,0-2.343-5.56c-1.345-1.34-5.734-3.57-8.191-4.33s-14.452-4.09-16.968-4.68c-0.354-.08-0.854-0.17-1.435-0.26a11.991,11.991,0,0,1-23.979.13c-2.626.45-4.7,0.91-5.655,1.18-2.223.65-12.755,3.69-15.1,4.45a20.121,20.121,0,0,0-6.729,4.56c-1.29,1.29-1.485,3.87-1.514,6.53H919v4h-2v-5h0.013c0.093-9.79,8.194-11.78,18-14.34A88.44,88.44,0,0,1,948,4812.22v-7.79a22.022,22.022,0,0,1-9.645-14.6A8.007,8.007,0,0,1,932,4782a7.812,7.812,0,0,1,.307-2.06,12.48,12.48,0,0,1-2.26-16.28,10.964,10.964,0,0,1,7.055-15.26c1.028-6.39,10.88-11.4,22.9-11.4s21.87,5.01,22.9,11.4a10.964,10.964,0,0,1,7.055,15.26,12.465,12.465,0,0,1-2.069,16.1A7.777,7.777,0,0,1,988,4781a7.966,7.966,0,0,1-6.19,7.75,22,22,0,0,1-9.81,15.68v7.78a86.589,86.589,0,0,1,12.984,3.45c9.566,2.64,17.906,4.55,18.006,14.34H1003v5h-2Zm-51-21a10,10,0,0,0,20,0v-8.42a21.871,21.871,0,0,1-20,0V4814Zm-16-32a5.98,5.98,0,0,0,4.084,5.66c-0.041-.55-0.084-1.1-0.084-1.66v-3.25a12.5,12.5,0,0,1-3.936-1.53A5.047,5.047,0,0,0,934,4782Zm56-11.5a10.322,10.322,0,0,0-1.026-4.45L989,4766a14.713,14.713,0,0,0-.791-1.36c-0.207-.31-0.422-0.58-0.619-0.82A8.91,8.91,0,0,0,989,4759a9,9,0,0,0-8.056-8.95,5.119,5.119,0,0,0,.056-0.55,5.4,5.4,0,0,0-.227-1.46h0c-0.615-2.21-2.59-4.19-5.5-5.73a1.048,1.048,0,0,0-.151-0.08c-0.331-.18-0.678-0.34-1.032-0.5-0.129-.06-0.256-0.12-0.388-0.18-0.318-.13-0.647-0.26-0.981-0.39-0.187-.07-0.372-0.14-0.564-0.21-0.31-.11-0.627-0.22-0.95-0.32-0.234-.07-0.47-0.15-0.711-0.21-0.3-.09-0.612-0.18-0.926-0.26-0.277-.07-0.559-0.14-0.843-0.2s-0.6-.14-0.9-0.2l-0.97-.18c-0.289-.05-0.577-0.1-0.872-0.14-0.363-.06-0.735-0.1-1.106-0.14-0.273-.04-0.543-0.07-0.82-0.1-0.43-.04-0.869-0.07-1.308-0.1-0.23-.01-0.457-0.04-0.69-0.05-0.678-.03-1.364-0.05-2.059-0.05s-1.381.02-2.059,0.05c-0.233.01-.46,0.04-0.69,0.05-0.439.03-.878,0.06-1.308,0.1-0.277.03-.547,0.06-0.82,0.1-0.371.04-.743,0.08-1.106,0.14-0.3.04-.583,0.09-0.872,0.14l-0.97.18c-0.3.06-.6,0.13-0.9,0.2s-0.566.13-.843,0.2c-0.314.08-.622,0.17-0.926,0.26-0.241.06-.477,0.14-0.711,0.21-0.323.1-.64,0.21-0.95,0.32-0.192.07-.377,0.14-0.564,0.21-0.334.13-.663,0.26-0.981,0.39-0.132.06-.259,0.12-0.388,0.18-0.354.16-.7,0.32-1.032,0.5a1.048,1.048,0,0,0-.151.08c-2.91,1.54-4.885,3.52-5.5,5.73h0a5.4,5.4,0,0,0-.227,1.46,5.119,5.119,0,0,0,.056.55,8.992,8.992,0,0,0-6.638,13.79,10.282,10.282,0,0,0-.656.88c-0.422.63-.762,1.28-0.762,1.28l0.029,0.04A10.373,10.373,0,0,0,930,4770.5a10.5,10.5,0,0,0,8,10.19V4771c0-.4.036-0.8,0.06-1.19a0.127,0.127,0,0,0-.06-0.01v-2.03a8.8,8.8,0,0,0,2,.23,9,9,0,0,0,9-9c0-.19-0.017-0.39-0.029-0.58,0.653,0.21,1.329.39,2.028,0.56h0c0.667,0.15,1.351.3,2.055,0.42,0.027,0,.054.01,0.081,0.01,0.649,0.12,1.312.21,1.989,0.29,0.089,0.01.177,0.03,0.267,0.04,0.618,0.07,1.246.12,1.883,0.16,0.141,0.01.277,0.03,0.418,0.03,0.759,0.05,1.527.07,2.308,0.07s1.549-.02,2.308-0.07c0.141,0,.277-0.02.418-0.03,0.637-.04,1.265-0.09,1.883-0.16,0.09-.01.178-0.03,0.267-0.04,0.677-.08,1.34-0.17,1.989-0.29,0.027,0,.054-0.01.081-0.01,0.7-.12,1.388-0.27,2.055-0.42h0c0.7-.17,1.375-0.35,2.028-0.56-0.012.19-.029,0.39-0.029,0.58a9,9,0,0,0,9,9,8.8,8.8,0,0,0,2-.23v2.03a0.127,0.127,0,0,0-.06.01c0.024,0.39.06,0.79,0.06,1.19v9.69A10.5,10.5,0,0,0,990,4770.5Zm-4.015,10.69a12.515,12.515,0,0,1-3.985,1.56V4786c0,0.22-.026.43-0.033,0.65A5.988,5.988,0,0,0,985.985,4781.19ZM980,4786v-15c0-.34-0.033-0.67-0.051-1a11,11,0,0,1-10.765-9.04,41.071,41.071,0,0,1-18.368,0,11,11,0,0,1-10.765,9.04c-0.018.33-.051,0.66-0.051,1v15A20,20,0,0,0,980,4786Zm-20,11.01a12.476,12.476,0,0,1-7.608-2.03l0.016-.02a0.852,0.852,0,0,1-.448-0.74,1.153,1.153,0,0,1,1.149-1.15,1.132,1.132,0,0,1,.869.41,10.79,10.79,0,0,0,6.022,1.54,10.518,10.518,0,0,0,6.061-1.65,1.143,1.143,0,0,1,.83-0.36,1.1,1.1,0,0,1,1.08,1.15,0.764,0.764,0,0,1-.341.7l0.014-.02A12.6,12.6,0,0,1,960,4797.01Zm7-16.01a2,2,0,1,1,2,2A2,2,0,0,1,967,4781Zm-2-6a1,1,0,0,1,1-1h6a1,1,0,0,1,0,2h-6A1,1,0,0,1,965,4775Zm-11,1h-6a1,1,0,0,1,0-2h6A1,1,0,0,1,954,4776Zm-3,3a2,2,0,1,1-2,2A2,2,0,0,1,951,4779Z" transform="translate(-917 -4737)"/>
</svg>
