<svg id="User_mask.svg" xmlns="http://www.w3.org/2000/svg" width="14" height="17" viewBox="0 0 14 17">
  <defs>
    <style>
      .cls-1 {
        fill: #fff;
        fill-rule: evenodd;
      }
    </style>
  </defs>
  <path id="Ellipse_57_copy_6" data-name="Ellipse 57 copy 6" class="cls-1" d="M1243,41.006a3,3,0,1,1,3-3A3,3,0,0,1,1243,41.006Zm7,7.791c0,0.029-.01.054-0.01,0.082-0.29-2.8-3.56-4.895-6.97-4.891-3.34,0-6.67,1.97-7.02,4.941V33h7a5,5,0,1,0,.01,0H1250V48.8Zm0,1.2h-14V48.932l0.03-.135a1.055,1.055,0,0,0,.95,1.2,1.08,1.08,0,0,0,1.01-1.014,0.687,0.687,0,0,0-.06-0.188,6.02,6.02,0,0,1,10.17,0v0.188a0.953,0.953,0,1,0,1.89-.106c0,0.016.01,0.03,0.01,0.046V50Z" transform="translate(-1236 -33)"/>
</svg>
