<svg id="Basket_mask.svg" xmlns="http://www.w3.org/2000/svg" width="18" height="17" viewBox="0 0 18 17">
  <defs>
    <style>
      .cls-1 {
        fill: #fff;
        fill-rule: evenodd;
      }
    </style>
  </defs>
  <path id="Ellipse_2_copy_3" data-name="Ellipse 2 copy 3" class="cls-1" d="M1386.78,41l-0.41-3H1397l-0.72,3h-9.5ZM1381,50V34a1,1,0,0,0,1,1h1.85l1.15,7.219L1385.75,43h11.62l0.63-.656L1399,38V36.815L1398.12,36h-11.96l-0.5-2.231a1.033,1.033,0,0,0-1.14-.763l-0.31,0H1399V50h-18Zm7-6a3,3,0,1,0,3,3A3,3,0,0,0,1388,44Zm7,0a3,3,0,1,0,3,3A3,3,0,0,0,1395,44Zm-1,2h2v2h-2V46Zm-7,0h2v2h-2V46Zm-6-12V33h0.99A1,1,0,0,0,1381,34Z" transform="translate(-1381 -33)"/>
</svg>
