<svg id="Burger_white.svg" xmlns="http://www.w3.org/2000/svg" width="18" height="16" viewBox="0 0 18 16">
  <defs>
    <style>
      .cls-1 {
        fill: #fff;
        fill-rule: evenodd;
      }
    </style>
  </defs>
  <path id="Rounded_Rectangle_81_copy_2" data-name="Rounded Rectangle 81 copy 2" class="cls-1" d="M330,114h16a1,1,0,0,1,1,1h0a1,1,0,0,1-1,1H330a1,1,0,0,1-1-1h0A1,1,0,0,1,330,114Zm0,7h16a1,1,0,0,1,1,1h0a1,1,0,0,1-1,1H330a1,1,0,0,1-1-1h0A1,1,0,0,1,330,121Zm0,7h16a1,1,0,0,1,1,1h0a1,1,0,0,1-1,1H330a1,1,0,0,1-1-1h0A1,1,0,0,1,330,128Z" transform="translate(-329 -114)"/>
</svg>
