<svg id="Burger_mask.svg" xmlns="http://www.w3.org/2000/svg" width="18" height="16" viewBox="0 0 18 16">
  <defs>
    <style>
      .cls-1 {
        fill: #fff;
        fill-rule: evenodd;
      }
    </style>
  </defs>
  <path id="Rounded_Rectangle_81_copy_2" data-name="Rounded Rectangle 81 copy 2" class="cls-1" d="M346,130a1,1,0,0,0,1-1h0a1,1,0,0,0-1-1H330a1,1,0,0,0-1,1v-7a1,1,0,0,0,1,1h16a1,1,0,0,0,0-2H330a1,1,0,0,0-1,1v-7a1,1,0,0,0,1,1h16a1,1,0,0,0,0-2h1v16h-1Zm-17-15v-1h1A1,1,0,0,0,329,115Zm1,15h-1v-1A1,1,0,0,0,330,130Z" transform="translate(-329 -114)"/>
</svg>
