<svg id="Lock_big_white.svg" xmlns="http://www.w3.org/2000/svg" width="21" height="21" viewBox="0 0 21 21">
  <defs>
    <style>
      .cls-1 {
        fill: #fff;
        fill-rule: evenodd;
      }
    </style>
  </defs>
  <path id="Rounded_Rectangle_110" data-name="Rounded Rectangle 110" class="cls-1" d="M1433,132h-15a3,3,0,0,1-3-3v-7a3,3,0,0,1,3-3h1v-2a6,6,0,0,1,6-6h1a6,6,0,0,1,6,6v2h1a3,3,0,0,1,3,3v7A3,3,0,0,1,1433,132Zm-3-15a4,4,0,0,0-4-4h-1a4,4,0,0,0-4,4v2h9v-2Zm4,5a1,1,0,0,0-1-1h-15a1,1,0,0,0-1,1v7a1,1,0,0,0,1,1h15a1,1,0,0,0,1-1v-7Zm-8,3.9v1.6a0.5,0.5,0,1,1-1,0v-1.6A1.5,1.5,0,1,1,1426,125.9Z" transform="translate(-1415 -111)"/>
</svg>
