<svg id="Phone_black.svg" xmlns="http://www.w3.org/2000/svg" width="9" height="12" viewBox="0 0 9 12">
  <defs>
    <style>
      .cls-1 {
        fill: #222;
        fill-rule: evenodd;
      }
    </style>
  </defs>
  <path id="Shape_51_copy_4" data-name="Shape 51 copy 4" class="cls-1" d="M310.53,43.348a22.378,22.378,0,0,0,2.09,1.179,0.6,0.6,0,0,1,.314.827l-0.119.417a0.956,0.956,0,0,1-.57.7,4.408,4.408,0,0,1-1.51.532c-1.448.03-2.728-1.179-3.624-2.19a13.251,13.251,0,0,1-1.517-2.078,13.082,13.082,0,0,1-1.069-2.331c-0.442-1.27-.866-2.966-0.116-4.186a4.36,4.36,0,0,1,1.223-1.02,0.98,0.98,0,0,1,.9-0.135l0.427,0.107a0.623,0.623,0,0,1,.552.7c-0.007.927-.021,1.592,0.011,2.354,0.012,0.316-.112.361-0.4,0.472l-0.467.18a0.553,0.553,0,0,0-.455.677,7.768,7.768,0,0,0,2.5,4.26,0.567,0.567,0,0,0,.824-0.05l0.391-.307a0.439,0.439,0,0,1,.617-0.107h0Z" transform="translate(-304 -35)"/>
</svg>
