<svg id="User_big_mask.svg" xmlns="http://www.w3.org/2000/svg" width="21" height="21" viewBox="0 0 21 21">
  <defs>
    <style>
      .cls-1 {
        fill: #fff;
        fill-rule: evenodd;
      }
    </style>
  </defs>
  <path id="Rounded_Rectangle_107" data-name="Rounded Rectangle 107" class="cls-1" d="M1415,111h21v21h-21V111Zm18.85,21c-1.09-2.325-4.24-4-6.85-4h-3c-2.61,0-5.79,1.675-6.88,4h-2.16c1.11-3.448,5.31-6,9.04-6h3c3.73,0,7.9,2.552,9.01,6h-2.16Zm-8.35-8a6.5,6.5,0,1,1,6.5-6.5A6.5,6.5,0,0,1,1425.5,124Zm0-11a4.5,4.5,0,1,0,4.5,4.5A4.5,4.5,0,0,0,1425.5,113Z" transform="translate(-1415 -111)"/>
</svg>
